<mxfile host="app.diagrams.net" modified="2023-12-14T12:00:03.189Z" agent="Mozilla/5.0 (Windows NT 10.0; Win64; x64) AppleWebKit/537.36 (KHTML, like Gecko) Chrome/120.0.0.0 Safari/537.36 Edg/120.0.0.0" version="22.1.8" etag="Pm3DIYbH_y7-hkGG1Ta6" type="github">
  <diagram name="Page-1" id="e6nGu-GBDNwWJ0_RPPht">
    <mxGraphModel>
      <root>
        <mxCell id="0" />
        <mxCell id="1" parent="0" />
      </root>
    </mxGraphModel>
  </diagram>
</mxfile>
